<svg enable-background="new 0 0 512 512" height="512" viewBox="0 0 512 512" width="512" xmlns="http://www.w3.org/2000/svg"><g><path d="m23.572 45.361c-12.824-.693-23.572 10.222-23.572 23.942v246.879c0 13.72 10.747 24.634 23.571 23.943 40.035-2.16 122.54-14.151 179.774-73.629l11.155-69.681-11.155-77.819c-57.234-59.478-139.737-71.473-179.773-73.635z" fill="#ff884d"/><path d="m488.428 45.361c-40.036 2.162-122.539 14.157-179.773 73.635l-14.155 77.818 14.155 69.681c57.234 59.478 139.738 71.47 179.774 73.629 12.824.693 23.571-10.221 23.571-23.941v-246.88c0-13.72-10.748-24.635-23.572-23.942z" fill="#f53"/><path d="m217.692 231.592c-4.956 0-9.839-2.304-12.952-6.635-15.219-21.175-61.566-29.638-78.14-31.112-8.759-.779-15.239-8.507-14.469-17.268.77-8.76 8.487-15.256 17.244-14.478 7.58.659 74.819 7.497 101.241 44.258 5.136 7.146 3.507 17.103-3.639 22.239-2.813 2.023-6.065 2.996-9.285 2.996z" fill="#f53"/><g><path d="m294.3 231.592c-3.221 0-6.471-.973-9.286-2.996-7.145-5.136-8.775-15.092-3.639-22.239 26.422-36.761 93.662-43.6 101.242-44.258 8.76-.767 16.492 5.726 17.253 14.494.761 8.761-5.719 16.482-14.478 17.252-16.574 1.474-62.92 9.937-78.139 31.112-3.114 4.331-7.998 6.635-12.953 6.635z" fill="#cc295f"/></g><path d="m86.033 330.813c-43.725 53.257-42.466 101.028-37.706 125.05 1.708 8.617 11.089 13.294 18.987 9.446l51.791-25.231c3.546-1.728 7.675-1.802 11.281-.203l54.159 24.017c8.844 3.922 18.799-2.553 18.799-12.228v-185.168z" fill="#f53"/><path d="m425.967 330.813-117.309-64.317v185.168c0 9.675 9.954 16.15 18.799 12.228l54.159-24.017c3.606-1.599 7.734-1.525 11.281.203l51.791 25.231c7.897 3.847 17.279-.829 18.986-9.446 4.759-24.022 6.018-71.793-37.707-125.05z" fill="#cc295f"/><path d="m256 119 16 73.742-16 73.758h-52.66v-147.5z" fill="#f53"/><path d="m256 119h52.66v147.5h-52.66z" fill="#cc295f"/></g></svg>